<svg width="14" height="14" viewBox="0 0 14 14" fill="none" xmlns="http://www.w3.org/2000/svg">
<path d="M13.8425 0.157492C13.6325 -0.0524972 13.2923 -0.0524972 13.0824 0.157492L7 6.23985L0.917645 0.157492C0.707656 -0.0524972 0.367467 -0.0524972 0.157492 0.157492C-0.0524838 0.367481 -0.0524972 0.707669 0.157492 0.917645L6.23985 7L0.157492 13.0824C-0.0524972 13.2923 -0.0524972 13.6325 0.157492 13.8425C0.367481 14.0525 0.707669 14.0525 0.917645 13.8425L7 7.76015L13.0824 13.8425C13.2923 14.0525 13.6325 14.0525 13.8425 13.8425C14.0525 13.6325 14.0525 13.2923 13.8425 13.0824L7.76015 7L13.8425 0.917645C14.0525 0.707656 14.0525 0.367467 13.8425 0.157492Z" fill="#1D1F22"/>
</svg>
